<svg width="45" height="45" viewBox="0 0 45 45" fill="none" xmlns="http://www.w3.org/2000/svg">
<path d="M22.5 45C34.9066 45 45 34.9066 45 22.5C45 10.0934 34.9066 0 22.5 0C10.0934 0 0 10.0934 0 22.5C0 34.9066 10.0934 45 22.5 45ZM22.5 2.00637C33.8004 2.00637 42.9936 11.1996 42.9936 22.5C42.9936 33.8004 33.8004 42.9936 22.5 42.9936C11.1996 42.9936 2.00637 33.8004 2.00637 22.5C2.00637 11.1996 11.1996 2.00637 22.5 2.00637Z" fill="#0084F4"/>
<path d="M16.9542 20.4778C19.2489 20.4778 21.1085 18.6175 21.1085 16.3234C21.1091 14.0287 19.2489 12.1685 16.9542 12.1685C14.6595 12.1685 12.7998 14.0287 12.7998 16.3228C12.802 18.6164 14.6606 20.475 16.9542 20.4778ZM16.9542 14.1748C18.1404 14.1748 19.1022 15.1366 19.1022 16.3228C19.1027 17.5096 18.141 18.4714 16.9542 18.4714C15.7679 18.4714 14.8062 17.5096 14.8062 16.3228C14.8073 15.1371 15.7685 14.1765 16.9542 14.1748Z" fill="#0084F4"/>
<path d="M23.6396 28.9289C23.6396 31.2235 25.4999 33.0832 27.794 33.0832C30.0887 33.0832 31.9489 31.2235 31.9489 28.9289C31.9489 26.6342 30.0887 24.7739 27.794 24.7739C25.5005 24.7767 23.6424 26.6353 23.6396 28.9289ZM29.9426 28.9289C29.9426 30.1151 28.9808 31.0769 27.794 31.0769C26.6078 31.0769 25.646 30.1151 25.646 28.9289C25.646 27.7426 26.6078 26.7809 27.794 26.7803C28.9803 26.782 29.9409 27.7426 29.9426 28.9289Z" fill="#0084F4"/>
<path d="M14.8616 34.2123C15.3257 34.5151 15.9476 34.3841 16.2499 33.92L30.4311 12.1758C30.6276 11.8752 30.6489 11.4928 30.4871 11.1726C30.3247 10.8524 30.004 10.643 29.6457 10.624C29.2874 10.6049 28.9459 10.7785 28.7506 11.0797L14.5694 32.8239C14.2665 33.2886 14.3975 33.91 14.8616 34.2123Z" fill="#0084F4"/>
</svg>
