<svg width="247" height="421" viewBox="0 0 247 421" fill="none" xmlns="http://www.w3.org/2000/svg">
<circle cx="5.23562" cy="5.23562" r="5.23562" fill="#012B88" fill-opacity="0.29"/>
<circle cx="5.23562" cy="32.5652" r="5.23562" fill="#012B88" fill-opacity="0.29"/>
<circle cx="5.23562" cy="59.8953" r="5.23562" fill="#012B88" fill-opacity="0.29"/>
<circle cx="5.23562" cy="87.2259" r="5.23562" fill="#012B88" fill-opacity="0.29"/>
<circle cx="5.23562" cy="114.555" r="5.23562" fill="#012B88" fill-opacity="0.29"/>
<circle cx="5.23562" cy="141.885" r="5.23562" fill="#012B88" fill-opacity="0.29"/>
<circle cx="5.23562" cy="169.216" r="5.23562" fill="#012B88" fill-opacity="0.29"/>
<circle cx="5.23562" cy="196.546" r="5.23562" fill="#012B88" fill-opacity="0.29"/>
<circle cx="5.23562" cy="223.875" r="5.23562" fill="#012B88" fill-opacity="0.29"/>
<circle cx="5.23562" cy="251.205" r="5.23562" fill="#012B88" fill-opacity="0.29"/>
<circle cx="5.23562" cy="278.535" r="5.23562" fill="#012B88" fill-opacity="0.29"/>
<circle cx="5.23562" cy="305.866" r="5.23562" fill="#012B88" fill-opacity="0.29"/>
<circle cx="5.23562" cy="333.195" r="5.23562" fill="#012B88" fill-opacity="0.29"/>
<circle cx="5.23562" cy="360.525" r="5.23562" fill="#012B88" fill-opacity="0.29"/>
<circle cx="5.23562" cy="387.855" r="5.23562" fill="#012B88" fill-opacity="0.29"/>
<circle cx="5.23562" cy="415.185" r="5.23562" fill="#012B88" fill-opacity="0.29"/>
<circle cx="34.7649" cy="5.23562" r="5.23562" fill="#012B88" fill-opacity="0.29"/>
<circle cx="34.7649" cy="32.5652" r="5.23562" fill="#012B88" fill-opacity="0.29"/>
<circle cx="34.7649" cy="59.8953" r="5.23562" fill="#012B88" fill-opacity="0.29"/>
<circle cx="34.7649" cy="87.2259" r="5.23562" fill="#012B88" fill-opacity="0.29"/>
<circle cx="34.7649" cy="114.555" r="5.23562" fill="#012B88" fill-opacity="0.29"/>
<circle cx="34.7649" cy="141.885" r="5.23562" fill="#012B88" fill-opacity="0.29"/>
<circle cx="34.7649" cy="169.216" r="5.23562" fill="#012B88" fill-opacity="0.29"/>
<circle cx="34.7649" cy="196.546" r="5.23562" fill="#012B88" fill-opacity="0.29"/>
<circle cx="34.7649" cy="223.875" r="5.23562" fill="#012B88" fill-opacity="0.29"/>
<circle cx="34.7649" cy="251.205" r="5.23562" fill="#012B88" fill-opacity="0.29"/>
<circle cx="34.7649" cy="278.535" r="5.23562" fill="#012B88" fill-opacity="0.29"/>
<circle cx="34.7649" cy="305.866" r="5.23562" fill="#012B88" fill-opacity="0.29"/>
<circle cx="34.7649" cy="333.195" r="5.23562" fill="#012B88" fill-opacity="0.29"/>
<circle cx="34.7649" cy="360.525" r="5.23562" fill="#012B88" fill-opacity="0.29"/>
<circle cx="34.7649" cy="387.855" r="5.23562" fill="#012B88" fill-opacity="0.29"/>
<circle cx="34.7649" cy="415.185" r="5.23562" fill="#012B88" fill-opacity="0.29"/>
<circle cx="64.2923" cy="5.23562" r="5.23562" fill="#012B88" fill-opacity="0.29"/>
<circle cx="64.2923" cy="32.5652" r="5.23562" fill="#012B88" fill-opacity="0.29"/>
<circle cx="64.2923" cy="59.8953" r="5.23562" fill="#012B88" fill-opacity="0.29"/>
<circle cx="64.2923" cy="87.2259" r="5.23562" fill="#012B88" fill-opacity="0.29"/>
<circle cx="64.2923" cy="114.555" r="5.23562" fill="#012B88" fill-opacity="0.29"/>
<circle cx="64.2923" cy="141.885" r="5.23562" fill="#012B88" fill-opacity="0.29"/>
<circle cx="64.2923" cy="169.216" r="5.23562" fill="#012B88" fill-opacity="0.29"/>
<circle cx="64.2923" cy="196.546" r="5.23562" fill="#012B88" fill-opacity="0.29"/>
<circle cx="64.2923" cy="223.875" r="5.23562" fill="#012B88" fill-opacity="0.29"/>
<circle cx="64.2923" cy="251.205" r="5.23562" fill="#012B88" fill-opacity="0.29"/>
<circle cx="64.2923" cy="278.535" r="5.23562" fill="#012B88" fill-opacity="0.29"/>
<circle cx="64.2923" cy="305.866" r="5.23562" fill="#012B88" fill-opacity="0.29"/>
<circle cx="64.2923" cy="333.195" r="5.23562" fill="#012B88" fill-opacity="0.29"/>
<circle cx="64.2923" cy="360.525" r="5.23562" fill="#012B88" fill-opacity="0.29"/>
<circle cx="64.2923" cy="387.855" r="5.23562" fill="#012B88" fill-opacity="0.29"/>
<circle cx="64.2923" cy="415.185" r="5.23562" fill="#012B88" fill-opacity="0.29"/>
<circle cx="93.8235" cy="5.23562" r="5.23562" fill="#012B88" fill-opacity="0.29"/>
<circle cx="93.8235" cy="32.5652" r="5.23562" fill="#012B88" fill-opacity="0.29"/>
<circle cx="93.8235" cy="59.8953" r="5.23562" fill="#012B88" fill-opacity="0.29"/>
<circle cx="93.8235" cy="87.2259" r="5.23562" fill="#012B88" fill-opacity="0.29"/>
<circle cx="93.8235" cy="114.555" r="5.23562" fill="#012B88" fill-opacity="0.29"/>
<circle cx="93.8235" cy="141.885" r="5.23562" fill="#012B88" fill-opacity="0.29"/>
<circle cx="93.8235" cy="169.216" r="5.23562" fill="#012B88" fill-opacity="0.29"/>
<circle cx="93.8235" cy="196.546" r="5.23562" fill="#012B88" fill-opacity="0.29"/>
<circle cx="93.8235" cy="223.875" r="5.23562" fill="#012B88" fill-opacity="0.29"/>
<circle cx="93.8235" cy="251.205" r="5.23562" fill="#012B88" fill-opacity="0.29"/>
<circle cx="93.8235" cy="278.535" r="5.23562" fill="#012B88" fill-opacity="0.29"/>
<circle cx="93.8235" cy="305.866" r="5.23562" fill="#012B88" fill-opacity="0.29"/>
<circle cx="93.8235" cy="333.195" r="5.23562" fill="#012B88" fill-opacity="0.29"/>
<circle cx="93.8235" cy="360.525" r="5.23562" fill="#012B88" fill-opacity="0.29"/>
<circle cx="93.8235" cy="387.855" r="5.23562" fill="#012B88" fill-opacity="0.29"/>
<circle cx="93.8235" cy="415.185" r="5.23562" fill="#012B88" fill-opacity="0.29"/>
<circle cx="123.351" cy="5.23562" r="5.23562" fill="#012B88" fill-opacity="0.29"/>
<circle cx="123.351" cy="32.5652" r="5.23562" fill="#012B88" fill-opacity="0.29"/>
<circle cx="123.351" cy="59.8953" r="5.23562" fill="#012B88" fill-opacity="0.29"/>
<circle cx="123.351" cy="87.2259" r="5.23562" fill="#012B88" fill-opacity="0.29"/>
<circle cx="123.351" cy="114.555" r="5.23562" fill="#012B88" fill-opacity="0.29"/>
<circle cx="123.351" cy="141.885" r="5.23562" fill="#012B88" fill-opacity="0.29"/>
<circle cx="123.351" cy="169.216" r="5.23562" fill="#012B88" fill-opacity="0.29"/>
<circle cx="123.351" cy="196.546" r="5.23562" fill="#012B88" fill-opacity="0.29"/>
<circle cx="123.351" cy="223.875" r="5.23562" fill="#012B88" fill-opacity="0.29"/>
<circle cx="123.351" cy="251.205" r="5.23562" fill="#012B88" fill-opacity="0.29"/>
<circle cx="123.351" cy="278.535" r="5.23562" fill="#012B88" fill-opacity="0.29"/>
<circle cx="123.351" cy="305.866" r="5.23562" fill="#012B88" fill-opacity="0.29"/>
<circle cx="123.351" cy="333.195" r="5.23562" fill="#012B88" fill-opacity="0.29"/>
<circle cx="123.351" cy="360.525" r="5.23562" fill="#012B88" fill-opacity="0.29"/>
<circle cx="123.351" cy="387.855" r="5.23562" fill="#012B88" fill-opacity="0.29"/>
<circle cx="123.351" cy="415.185" r="5.23562" fill="#012B88" fill-opacity="0.29"/>
<circle cx="152.88" cy="5.23562" r="5.23562" fill="#012B88" fill-opacity="0.29"/>
<circle cx="152.88" cy="32.5652" r="5.23562" fill="#012B88" fill-opacity="0.29"/>
<circle cx="152.88" cy="59.8953" r="5.23562" fill="#012B88" fill-opacity="0.29"/>
<circle cx="152.88" cy="87.2259" r="5.23562" fill="#012B88" fill-opacity="0.29"/>
<circle cx="152.88" cy="114.555" r="5.23562" fill="#012B88" fill-opacity="0.29"/>
<circle cx="152.88" cy="141.885" r="5.23562" fill="#012B88" fill-opacity="0.29"/>
<circle cx="152.88" cy="169.216" r="5.23562" fill="#012B88" fill-opacity="0.29"/>
<circle cx="152.88" cy="196.546" r="5.23562" fill="#012B88" fill-opacity="0.29"/>
<circle cx="152.88" cy="223.875" r="5.23562" fill="#012B88" fill-opacity="0.29"/>
<circle cx="152.88" cy="251.205" r="5.23562" fill="#012B88" fill-opacity="0.29"/>
<circle cx="152.88" cy="278.535" r="5.23562" fill="#012B88" fill-opacity="0.29"/>
<circle cx="152.88" cy="305.866" r="5.23562" fill="#012B88" fill-opacity="0.29"/>
<circle cx="152.88" cy="333.195" r="5.23562" fill="#012B88" fill-opacity="0.29"/>
<circle cx="152.88" cy="360.525" r="5.23562" fill="#012B88" fill-opacity="0.29"/>
<circle cx="152.88" cy="387.855" r="5.23562" fill="#012B88" fill-opacity="0.29"/>
<circle cx="152.88" cy="415.185" r="5.23562" fill="#012B88" fill-opacity="0.29"/>
<circle cx="182.409" cy="5.23562" r="5.23562" fill="#012B88" fill-opacity="0.29"/>
<circle cx="182.409" cy="32.5652" r="5.23562" fill="#012B88" fill-opacity="0.29"/>
<circle cx="182.409" cy="59.8953" r="5.23562" fill="#012B88" fill-opacity="0.29"/>
<circle cx="182.409" cy="87.2259" r="5.23562" fill="#012B88" fill-opacity="0.29"/>
<circle cx="182.409" cy="114.555" r="5.23562" fill="#012B88" fill-opacity="0.29"/>
<circle cx="182.409" cy="141.885" r="5.23562" fill="#012B88" fill-opacity="0.29"/>
<circle cx="182.409" cy="169.216" r="5.23562" fill="#012B88" fill-opacity="0.29"/>
<circle cx="182.409" cy="196.546" r="5.23562" fill="#012B88" fill-opacity="0.29"/>
<circle cx="182.409" cy="223.875" r="5.23562" fill="#012B88" fill-opacity="0.29"/>
<circle cx="182.409" cy="251.205" r="5.23562" fill="#012B88" fill-opacity="0.29"/>
<circle cx="182.409" cy="278.535" r="5.23562" fill="#012B88" fill-opacity="0.29"/>
<circle cx="182.409" cy="305.866" r="5.23562" fill="#012B88" fill-opacity="0.29"/>
<circle cx="182.409" cy="333.195" r="5.23562" fill="#012B88" fill-opacity="0.29"/>
<circle cx="182.409" cy="360.525" r="5.23562" fill="#012B88" fill-opacity="0.29"/>
<circle cx="182.409" cy="387.855" r="5.23562" fill="#012B88" fill-opacity="0.29"/>
<circle cx="182.409" cy="415.185" r="5.23562" fill="#012B88" fill-opacity="0.29"/>
<circle cx="211.939" cy="5.23562" r="5.23562" fill="#012B88" fill-opacity="0.29"/>
<circle cx="211.939" cy="32.5652" r="5.23562" fill="#012B88" fill-opacity="0.29"/>
<circle cx="211.939" cy="59.8953" r="5.23562" fill="#012B88" fill-opacity="0.29"/>
<circle cx="211.939" cy="87.2259" r="5.23562" fill="#012B88" fill-opacity="0.29"/>
<circle cx="211.939" cy="114.555" r="5.23562" fill="#012B88" fill-opacity="0.29"/>
<circle cx="211.939" cy="141.885" r="5.23562" fill="#012B88" fill-opacity="0.29"/>
<circle cx="211.939" cy="169.216" r="5.23562" fill="#012B88" fill-opacity="0.29"/>
<circle cx="211.939" cy="196.546" r="5.23562" fill="#012B88" fill-opacity="0.29"/>
<circle cx="211.939" cy="223.875" r="5.23562" fill="#012B88" fill-opacity="0.29"/>
<circle cx="211.939" cy="251.205" r="5.23562" fill="#012B88" fill-opacity="0.29"/>
<circle cx="211.939" cy="278.535" r="5.23562" fill="#012B88" fill-opacity="0.29"/>
<circle cx="211.939" cy="305.866" r="5.23562" fill="#012B88" fill-opacity="0.29"/>
<circle cx="211.939" cy="333.195" r="5.23562" fill="#012B88" fill-opacity="0.29"/>
<circle cx="211.939" cy="360.525" r="5.23562" fill="#012B88" fill-opacity="0.29"/>
<circle cx="211.939" cy="387.855" r="5.23562" fill="#012B88" fill-opacity="0.29"/>
<circle cx="211.939" cy="415.185" r="5.23562" fill="#012B88" fill-opacity="0.29"/>
<circle cx="241.468" cy="5.23562" r="5.23562" fill="#012B88" fill-opacity="0.29"/>
<circle cx="241.468" cy="32.5652" r="5.23562" fill="#012B88" fill-opacity="0.29"/>
<circle cx="241.468" cy="59.8953" r="5.23562" fill="#012B88" fill-opacity="0.29"/>
<circle cx="241.468" cy="87.2259" r="5.23562" fill="#012B88" fill-opacity="0.29"/>
<circle cx="241.468" cy="114.555" r="5.23562" fill="#012B88" fill-opacity="0.29"/>
<circle cx="241.468" cy="141.885" r="5.23562" fill="#012B88" fill-opacity="0.29"/>
<circle cx="241.468" cy="169.216" r="5.23562" fill="#012B88" fill-opacity="0.29"/>
<circle cx="241.468" cy="196.546" r="5.23562" fill="#012B88" fill-opacity="0.29"/>
<circle cx="241.468" cy="223.875" r="5.23562" fill="#012B88" fill-opacity="0.29"/>
<circle cx="241.468" cy="251.205" r="5.23562" fill="#012B88" fill-opacity="0.29"/>
<circle cx="241.468" cy="278.535" r="5.23562" fill="#012B88" fill-opacity="0.29"/>
<circle cx="241.468" cy="305.866" r="5.23562" fill="#012B88" fill-opacity="0.29"/>
<circle cx="241.468" cy="333.195" r="5.23562" fill="#012B88" fill-opacity="0.29"/>
<circle cx="241.468" cy="360.525" r="5.23562" fill="#012B88" fill-opacity="0.29"/>
<circle cx="241.468" cy="387.855" r="5.23562" fill="#012B88" fill-opacity="0.29"/>
<circle cx="241.468" cy="415.185" r="5.23562" fill="#012B88" fill-opacity="0.29"/>
</svg>
