<svg width="30" height="30" viewBox="0 0 30 30" fill="none" xmlns="http://www.w3.org/2000/svg">
<g clip-path="url(#clip0)">
<path d="M24.668 4.45312C24.668 2.0301 22.6965 0 20.2734 0C17.8504 0 15.8789 2.0301 15.8789 4.45312C15.8789 6.87615 17.8504 8.84766 20.2734 8.84766C22.6965 8.84766 24.668 6.87615 24.668 4.45312Z" fill="white"/>
<path d="M14.1211 4.45312C14.1211 2.0301 12.1496 0 9.72656 0C7.30354 0 5.33203 2.0301 5.33203 4.45312C5.33203 6.87615 7.30354 8.84766 9.72656 8.84766C12.1496 8.84766 14.1211 6.87615 14.1211 4.45312Z" fill="white"/>
<g filter="url(#filter0_dd)">
<path d="M10.6055 24.668C11.5723 24.668 12.3633 23.877 12.3633 22.9102C12.3633 21.9434 11.5723 21.1523 10.6055 21.1523C7.70502 21.1523 5.33203 18.7794 5.33203 15.8789C5.33203 15.3867 5.71869 15 6.21094 15C6.70318 15 7.08984 15.3867 7.08984 15.8789C7.08984 17.8124 8.67193 19.3945 10.6055 19.3945C10.6583 19.3945 10.7109 19.4121 10.7637 19.4121C11.1152 18.3749 12.0996 17.6367 13.2422 17.6367H15C13.0665 17.6367 11.4844 16.0546 11.4844 14.1211C11.4844 12.1876 13.0665 10.6055 15 10.6055C16.9335 10.6055 18.5156 12.1876 18.5156 14.1211C18.5156 16.0546 16.9335 17.6367 15 17.6367H16.7578C17.9004 17.6367 18.8848 18.3749 19.2363 19.4121C19.2891 19.4121 19.3417 19.3945 19.3945 19.3945C21.3281 19.3945 22.9102 17.8124 22.9102 15.8789C22.9102 15.3867 23.2968 15 23.7891 15C24.2813 15 24.668 15.3867 24.668 15.8789C24.668 18.7794 22.295 21.1523 19.3945 21.1523C18.4277 21.1523 17.6367 21.9434 17.6367 22.9102C17.6367 23.877 18.4277 24.668 19.3945 24.668C21.9077 24.668 24.2541 23.5967 25.8792 21.8283C28.3168 19.1757 28.1314 16.1262 28.1836 15.8789C28.1836 11.9941 25.0372 8.84766 21.1523 8.84766H16.7578C16.0898 8.84766 15.4747 9.11139 15 9.51562C14.5253 9.11139 13.9102 8.84766 13.2422 8.84766H8.84766C4.96594 8.84766 1.81641 12.0037 1.81641 15.8789C1.81641 17.8882 2.56324 19.8904 3.72656 21.349C5.33396 23.3645 7.82947 24.668 10.6055 24.668Z" fill="white"/>
</g>
<path d="M15 15.8789C15.9708 15.8789 16.7578 15.0919 16.7578 14.1211C16.7578 13.1503 15.9708 12.3633 15 12.3633C14.0292 12.3633 13.2422 13.1503 13.2422 14.1211C13.2422 15.0919 14.0292 15.8789 15 15.8789Z" fill="white"/>
<path d="M12.3633 25.9382V30H17.6367V25.9382C16.5904 25.3292 15.8789 24.2081 15.8789 22.9102C15.8789 21.6427 16.5558 20.5413 17.5617 19.9228C17.4259 19.6127 17.1178 19.3945 16.7578 19.3945H13.2422C12.8822 19.3945 12.5741 19.6127 12.4383 19.9228C13.4442 20.5413 14.1211 21.6427 14.1211 22.9102C14.1211 24.2081 13.4096 25.3292 12.3633 25.9382Z" fill="white"/>
<path d="M26.4258 29.1211V23.7502C24.5043 25.46 21.9962 26.4258 19.3945 26.4258V30H25.5469C26.0327 30 26.4258 29.6069 26.4258 29.1211Z" fill="white"/>
<path d="M10.6055 26.426C7.97326 26.426 5.49662 25.4476 3.57422 23.7188V29.1213C3.57422 29.6071 3.96732 30.0002 4.45312 30.0002H10.6055V26.426Z" fill="white"/>
</g>
<defs>
<filter id="filter0_dd" x="-30.1836" y="0.847656" width="90.3672" height="79.8203" filterUnits="userSpaceOnUse" color-interpolation-filters="sRGB">
<feFlood flood-opacity="0" result="BackgroundImageFix"/>
<feColorMatrix in="SourceAlpha" type="matrix" values="0 0 0 0 0 0 0 0 0 0 0 0 0 0 0 0 0 0 127 0"/>
<feOffset dy="24"/>
<feGaussianBlur stdDeviation="16"/>
<feColorMatrix type="matrix" values="0 0 0 0 0.196487 0 0 0 0 0.196487 0 0 0 0 0.279476 0 0 0 0.08 0"/>
<feBlend mode="multiply" in2="BackgroundImageFix" result="effect1_dropShadow"/>
<feColorMatrix in="SourceAlpha" type="matrix" values="0 0 0 0 0 0 0 0 0 0 0 0 0 0 0 0 0 0 127 0"/>
<feOffset dy="16"/>
<feGaussianBlur stdDeviation="8"/>
<feColorMatrix type="matrix" values="0 0 0 0 0.196487 0 0 0 0 0.196487 0 0 0 0 0.279476 0 0 0 0.08 0"/>
<feBlend mode="multiply" in2="effect1_dropShadow" result="effect2_dropShadow"/>
<feBlend mode="normal" in="SourceGraphic" in2="effect2_dropShadow" result="shape"/>
</filter>
<clipPath id="clip0">
<rect width="30" height="30" fill="white"/>
</clipPath>
</defs>
</svg>
