<svg width="45" height="45" viewBox="0 0 45 45" fill="none" xmlns="http://www.w3.org/2000/svg">
<g clip-path="url(#clip0)">
<path d="M41.8967 20.157C41.4113 20.157 41.0178 20.5506 41.0178 21.036C41.0178 21.5213 41.4113 21.9149 41.8967 21.9149C42.6386 21.9149 43.2422 22.5184 43.2422 23.2604C43.2422 24.0024 42.6386 24.6059 41.8967 24.6059H40.2298C40.08 21.8551 39.2281 19.1997 37.7432 16.8778C36.2644 14.5654 34.2243 12.6784 31.8173 11.386C31.8739 10.9665 31.9043 10.5411 31.9043 10.1113C31.9043 4.92578 27.6855 0.707031 22.5 0.707031C17.3145 0.707031 13.0957 4.92578 13.0957 10.1113C13.0957 10.3137 13.1037 10.5147 13.1164 10.715C13.1007 10.7216 13.0849 10.7276 13.0693 10.7342L9.17648 8.47665C8.67595 8.18635 8.07768 8.18547 7.57617 8.47428C7.07467 8.76317 6.77531 9.28111 6.77531 9.85987V15.4931C5.62482 16.9286 4.74267 18.5268 4.14615 20.2554H2.43896C1.09415 20.2554 0 21.3495 0 22.6944V28.2754C0 29.6203 1.09415 30.7144 2.43896 30.7144H4.14642C5.23002 33.8457 7.27972 36.5841 9.99018 38.5172V42.4282C9.99018 43.4567 10.827 44.2935 11.8556 44.2935H15.1305C15.8326 44.2935 16.4682 43.9057 16.7893 43.2814L17.7523 41.4094C18.2569 41.4569 18.764 41.4809 19.2667 41.4809H24.2578C24.7605 41.4809 25.2677 41.4569 25.7722 41.4094L26.7352 43.2814C27.0563 43.9057 27.6919 44.2935 28.3939 44.2935H31.6689C32.6975 44.2935 33.5343 43.4567 33.5343 42.4282V38.5173C37.5121 35.6829 39.9636 31.2184 40.2289 26.3638H41.8968C43.6079 26.3638 45.0001 24.9716 45.0001 23.2605C45.0001 21.5493 43.6079 20.157 41.8967 20.157V20.157ZM22.5 2.46476C26.7163 2.46476 30.1465 5.89495 30.1465 10.1112C30.1465 11.4608 29.7982 12.7597 29.1354 13.9122C27.8606 13.215 26.4984 12.7335 25.1026 12.4685C25.3021 12.0995 25.4152 11.6831 25.4152 11.2421C25.4152 9.7385 24.1075 8.51515 22.5 8.51515C21.8618 8.51515 21.3426 8.08044 21.3426 7.54606C21.3426 7.01169 21.8618 6.57698 22.5 6.57698C23.1382 6.57698 23.6574 7.01169 23.6574 7.54606C23.6574 8.0314 24.0509 8.42497 24.5363 8.42497C25.0218 8.42497 25.4152 8.0314 25.4152 7.54606C25.4152 6.32887 24.5581 5.29562 23.3789 4.94608V4.82383C23.3789 4.3385 22.9854 3.94492 22.5 3.94492C22.0146 3.94492 21.6211 4.3385 21.6211 4.82383V4.94608C20.4419 5.29562 19.5848 6.32887 19.5848 7.54606C19.5848 9.0497 20.8925 10.273 22.5 10.273C23.1382 10.273 23.6574 10.7078 23.6574 11.2421C23.6574 11.7765 23.1382 12.2112 22.5 12.2112C21.8618 12.2112 21.3426 11.7765 21.3426 11.2421C21.3426 10.7568 20.9491 10.3632 20.4637 10.3632C19.9782 10.3632 19.5848 10.7568 19.5848 11.2421C19.5848 11.6846 19.6987 12.1022 19.8994 12.4721C18.5045 12.739 17.1434 13.2224 15.8699 13.9214C15.2036 12.7668 14.8535 11.4646 14.8535 10.1112C14.8535 5.89495 18.2837 2.46476 22.5 2.46476V2.46476ZM32.1665 37.3258C31.9228 37.4889 31.7764 37.7629 31.7764 38.0562V42.4281C31.7764 42.4873 31.7282 42.5356 31.6688 42.5356H28.3939C28.3535 42.5356 28.3169 42.5133 28.2983 42.4773L27.0577 40.0656C26.8877 39.735 26.528 39.5469 26.16 39.5964C25.5296 39.6805 24.8896 39.7231 24.2578 39.7231H19.2667C18.6349 39.7231 17.9949 39.6805 17.3645 39.5964C16.9957 39.5467 16.6367 39.7351 16.4667 40.0656L15.2262 42.4773C15.2077 42.5133 15.1711 42.5356 15.1305 42.5356H11.8556C11.7962 42.5356 11.748 42.4873 11.748 42.4281V38.0562C11.748 37.7629 11.6017 37.489 11.3579 37.3258C8.6088 35.4856 6.57378 32.7358 5.62781 29.5827C5.51628 29.211 5.17412 28.9564 4.786 28.9564H2.43896C2.06341 28.9564 1.75781 28.6508 1.75781 28.2752V26.3636H2.98828C3.4737 26.3636 3.86719 25.97 3.86719 25.4847C3.86719 24.9994 3.4737 24.6058 2.98828 24.6058H1.75781V22.6942C1.75781 22.3186 2.06341 22.013 2.43896 22.013H4.78608C5.17421 22.013 5.51637 21.7585 5.6279 21.3867C6.18108 19.5428 7.08987 17.8548 8.32904 16.3696C8.46088 16.2116 8.53312 16.0124 8.53312 15.8066V10.1356L12.5727 12.4781C12.8188 12.6209 13.1186 12.6355 13.3776 12.5179C13.3864 12.5139 13.3952 12.51 13.404 12.5061C13.6203 13.3313 13.9493 14.1231 14.3855 14.8648C13.8165 15.2802 13.2721 15.7441 12.7587 16.2576C12.4155 16.6008 12.4155 17.1573 12.7587 17.5006C13.1019 17.8438 13.6585 17.8438 14.0018 17.5006C18.6939 12.8084 26.3286 12.8084 31.0207 17.5006C31.1924 17.6722 31.4173 17.7581 31.6422 17.7581C31.8671 17.7581 32.0921 17.6722 32.2637 17.5006C32.6069 17.1574 32.6069 16.6009 32.2637 16.2576C31.7456 15.7395 31.1959 15.2718 30.6212 14.8536C30.9371 14.3148 31.1963 13.7496 31.3971 13.1643C35.7413 15.6929 38.4961 20.4184 38.4961 25.4848C38.4961 30.2465 36.1299 34.6729 32.1665 37.3258V37.3258Z" fill="#0084F4"/>
<path d="M10.8691 19.3325C10.6371 19.3325 10.4112 19.4257 10.2478 19.59C10.0834 19.7535 9.99023 19.9803 9.99023 20.2114C9.99023 20.4426 10.0834 20.6693 10.2478 20.8328C10.4112 20.9962 10.6371 21.0903 10.8691 21.0903C11.1003 21.0903 11.3271 20.9963 11.4905 20.8328C11.654 20.6693 11.748 20.4426 11.748 20.2114C11.748 19.9803 11.654 19.7535 11.4905 19.59C11.3262 19.4257 11.1003 19.3325 10.8691 19.3325V19.3325Z" fill="#0084F4"/>
</g>
<defs>
<clipPath id="clip0">
<rect width="45" height="45" fill="white"/>
</clipPath>
</defs>
</svg>
